<?xml version="1.0" standalone="no"?>
<!DOCTYPE svg PUBLIC "-//W3C//DTD SVG 20010904//EN"
 "http://www.w3.org/TR/2001/REC-SVG-20010904/DTD/svg10.dtd">
<svg version="1.0" xmlns="http://www.w3.org/2000/svg"
 width="256.000000pt" height="256.000000pt" viewBox="0 0 256.000000 256.000000"
 preserveAspectRatio="xMidYMid meet">

<g transform="translate(0.000000,256.000000) scale(0.100000,-0.100000)"
fill="#000000" stroke="none">
<path d="M993 2387 c-40 -76 -66 -93 -158 -100 -38 -3 -78 -9 -87 -12 -13 -5
-18 -2 -18 9 0 20 -5 20 -35 0 -28 -18 -55 -13 -55 10 0 9 12 22 28 31 l27 16
-35 -6 c-34 -6 -177 -73 -186 -87 -7 -11 17 -111 36 -148 10 -19 32 -48 50
-65 l31 -30 -25 45 c-29 52 -44 120 -27 120 6 0 11 -4 11 -9 0 -5 5 -22 11
-38 l12 -28 7 25 c6 25 6 25 25 -10 18 -33 20 -33 23 -12 3 17 8 22 19 17 9
-3 44 -8 77 -12 34 -3 67 -10 74 -16 19 -15 14 -67 -13 -126 l-25 -53 -26 17
-27 17 5 -31 c5 -37 5 -37 -33 -10 l-29 21 -30 -32 c-16 -17 -38 -56 -49 -86
-23 -60 -28 -97 -7 -49 17 38 85 145 92 145 4 0 4 -14 2 -31 -4 -25 -1 -32 19
-40 32 -12 67 3 128 55 44 38 126 72 110 46 -3 -6 -2 -10 4 -10 18 0 23 21 11
51 -7 16 -17 29 -23 29 -8 0 -8 3 0 11 13 13 33 4 33 -17 0 -20 8 -18 42 11
59 50 110 44 116 -14 3 -26 -5 -39 -48 -81 -28 -28 -49 -50 -46 -50 17 0 128
75 150 101 31 37 34 29 5 -13 l-22 -30 43 22 c24 12 67 45 97 73 49 46 53 48
53 25 0 -29 -40 -70 -90 -92 l-35 -15 45 4 45 5 -35 -11 c-38 -12 -60 -26 -60
-41 0 -5 9 -4 21 3 12 6 45 19 75 29 43 15 60 17 85 8 l32 -11 -29 -13 c-16
-7 -22 -13 -14 -13 26 -1 90 20 90 29 0 6 14 10 30 10 35 0 80 38 80 68 0 23
-35 57 -73 71 -41 16 -49 14 -37 -8 15 -29 -3 -65 -47 -95 -39 -27 -59 -33
-48 -16 3 5 -7 5 -25 -2 -17 -5 -33 -8 -36 -6 -2 3 13 10 35 17 48 14 101 62
101 91 0 38 -126 70 -157 39 -9 -9 -20 -9 -44 0 -17 6 -43 11 -56 11 -23 0
-23 -1 -9 -22 9 -12 16 -36 15 -53 l-1 -30 -8 32 c-15 64 -44 82 -144 92 -74
8 -73 11 8 30 67 16 140 53 211 106 64 48 79 68 49 65 -11 -1 -57 -2 -103 -1
l-83 1 6 25 c3 14 9 37 12 53 l6 27 -19 -23 c-19 -23 -72 -62 -85 -62 -4 0 -8
25 -10 55 l-3 55 -32 -63z m-123 -155 c0 -16 -48 -31 -76 -23 -27 7 -28 8 -9
19 23 13 85 16 85 4z"/>
<path d="M1273 2255 c-23 -18 -48 -35 -55 -38 -20 -7 -6 -15 53 -31 30 -8 43
-15 29 -15 -14 0 -43 6 -64 14 -34 12 -43 12 -68 -1 -16 -8 -26 -19 -23 -24 4
-6 -6 -10 -22 -10 -15 0 -34 -4 -42 -9 -20 -13 69 -26 101 -15 l23 8 -23 5
c-13 3 23 6 80 6 63 0 111 5 123 12 15 9 16 13 5 13 -8 1 10 8 40 16 30 8 80
27 110 41 l55 26 -65 8 c-36 4 -85 12 -110 18 -73 17 -101 12 -147 -24z"/>
<path d="M1473 2188 c-51 -23 -93 -44 -93 -48 0 -13 130 -50 175 -50 24 0 87
7 139 16 92 16 159 13 171 -6 3 -5 -7 -5 -23 0 -32 9 -125 2 -120 -10 2 -3 29
-29 60 -58 60 -54 92 -66 195 -78 66 -7 115 -30 133 -64 8 -16 0 -12 -35 15
-40 30 -54 35 -101 35 -58 0 -59 -1 -43 -33 l10 -22 -18 22 c-17 21 -71 48
-80 40 -5 -6 70 -95 95 -113 35 -24 95 -47 86 -33 -5 9 -2 10 10 6 9 -4 45
-14 79 -23 34 -9 69 -20 77 -26 12 -7 10 -8 -5 -3 -11 4 -38 9 -59 12 -39 6
-39 6 -32 -23 14 -54 41 -89 106 -131 59 -40 75 -57 29 -33 -16 9 -21 7 -29
-12 l-9 -23 0 22 c-1 31 -61 61 -61 31 0 -17 54 -128 74 -153 l16 -20 -6 20
c-5 18 -4 18 8 -2 7 -12 41 -47 76 -78 l62 -57 -1 -86 c-1 -73 -3 -81 -10 -47
-4 22 -8 59 -8 83 -1 34 -8 50 -35 80 l-35 37 -10 -25 c-9 -22 -10 -22 -8 -4
2 21 -28 64 -44 64 -11 0 -1 -80 18 -149 11 -41 17 -51 24 -40 8 10 9 9 4 -7
-4 -15 9 -40 45 -90 51 -69 54 -79 41 -124 -6 -20 -8 -15 -13 28 -3 31 -12 61
-22 70 -16 16 -19 15 -42 -13 l-26 -30 17 34 c13 27 15 39 6 58 -6 13 -15 22
-20 19 -13 -8 -31 -89 -30 -133 0 -36 16 -90 19 -68 2 16 50 -127 50 -149 0
-25 -31 -93 -54 -121 -12 -14 -11 -7 4 23 27 55 36 131 21 161 -15 27 -28 19
-73 -43 -15 -21 -28 -34 -28 -28 0 6 16 31 35 56 27 35 34 52 29 71 -9 37 -19
31 -44 -27 -30 -68 -35 -145 -16 -233 17 -80 17 -80 -63 -173 -65 -76 -69 -64
-6 24 50 70 55 81 55 130 0 30 -4 54 -10 54 -5 0 -27 -17 -50 -38 -22 -22 -40
-36 -40 -32 0 3 18 24 40 45 29 28 40 47 40 69 l0 30 -29 -28 c-40 -39 -72
-116 -76 -188 -4 -58 -15 -95 -15 -50 0 27 -1 27 -50 2 -50 -25 -52 -19 -5 9
32 18 71 79 59 90 -7 7 -114 -102 -112 -114 1 -5 -5 -21 -14 -35 -9 -14 -24
-59 -33 -100 -10 -41 -21 -79 -25 -83 -9 -10 -110 -58 -110 -52 0 2 23 19 50
39 48 34 62 55 76 110 5 21 2 23 -23 20 -15 -2 -20 -1 -10 2 21 7 54 64 36 64
-20 0 -137 -89 -160 -122 -13 -17 -33 -59 -45 -92 -21 -60 -23 -61 -75 -78
-30 -9 -65 -17 -79 -16 -15 0 -1 7 35 19 63 20 105 56 105 90 0 14 -7 19 -27
20 -27 2 -28 2 -3 6 25 5 70 39 70 54 0 20 -200 -47 -216 -72 -7 -12 -2 -11
39 6 20 8 47 15 59 14 14 -1 8 -4 -16 -10 -54 -13 -98 -42 -145 -95 -45 -52
-76 -60 -161 -46 l-55 10 45 1 c95 3 124 12 153 42 35 38 34 45 -7 59 -50 16
-116 -4 -189 -58 l-61 -45 -73 17 c-82 20 -107 37 -35 25 93 -15 125 -11 165
22 20 17 37 34 37 37 0 4 -12 16 -27 26 -17 10 -20 15 -8 11 41 -15 64 -17 81
-7 15 9 12 12 -22 21 -21 6 -58 11 -81 11 -24 0 -43 4 -43 9 0 14 -83 41 -126
41 -22 0 -86 -15 -142 -34 l-102 -35 -57 39 c-68 45 -114 90 -92 90 16 0 98
-40 148 -72 31 -20 38 -20 80 -9 25 7 47 14 49 16 3 2 -5 21 -18 41 -13 24
-16 33 -6 25 8 -7 18 -21 21 -32 4 -13 16 -19 36 -19 36 0 36 6 2 34 -53 42
-61 44 -208 38 l-141 -5 -39 42 c-46 49 -61 71 -45 71 21 0 65 -29 99 -64 33
-34 39 -36 98 -36 35 0 63 4 63 9 0 5 -16 30 -35 55 -19 26 -27 41 -17 35 9
-6 29 -29 44 -50 27 -38 58 -52 58 -26 0 15 -42 55 -80 78 -17 11 -60 16 -140
18 -132 3 -133 3 -180 94 l-33 62 69 -72 c65 -69 72 -73 112 -73 l44 0 -36 66
c-20 36 -32 63 -26 59 6 -4 22 -29 36 -56 24 -49 42 -65 64 -57 16 5 -97 127
-118 127 -9 -1 -50 10 -91 23 l-74 24 -29 73 c-16 41 -27 78 -26 83 4 11 17
-13 48 -89 18 -43 29 -54 61 -67 59 -24 65 -21 62 22 -3 39 1 35 11 -9 5 -25
56 -60 56 -38 0 21 -49 105 -76 129 l-27 25 16 -25 c9 -13 17 -29 17 -34 0 -5
-10 6 -23 25 -13 20 -48 48 -85 67 -34 18 -69 43 -77 55 -14 21 -35 128 -35
177 0 43 18 8 29 -56 13 -86 35 -130 73 -154 18 -11 36 -20 41 -20 4 0 8 28 9
63 l2 62 3 -60 c4 -56 15 -85 33 -85 10 0 3 68 -12 128 -7 27 -22 52 -42 68
-17 15 -52 46 -78 71 l-48 44 1 67 c1 37 5 81 10 97 6 21 7 8 4 -42 -2 -40 0
-87 5 -104 9 -30 46 -79 60 -79 3 0 12 16 19 36 7 19 15 34 17 31 3 -2 0 -16
-6 -31 -7 -19 -7 -33 1 -48 18 -33 30 -8 36 74 4 57 2 77 -9 88 -40 40 -88
127 -88 158 0 44 64 206 68 173 2 -13 -8 -60 -22 -106 -32 -101 -32 -112 -4
-142 l22 -24 33 58 c39 69 45 60 7 -11 -20 -38 -24 -53 -16 -70 9 -20 11 -18
27 18 9 22 21 65 27 95 6 31 26 88 45 126 29 61 33 76 27 115 -7 43 -52 157
-53 134 -1 -6 -23 -41 -49 -77 -60 -81 -117 -190 -126 -240 -6 -32 -10 -36
-22 -27 -12 11 -14 6 -14 -30 0 -24 -10 -70 -22 -102 -17 -48 -19 -65 -11 -93
9 -28 8 -33 -4 -28 -13 5 -13 2 -4 -15 6 -11 11 -58 11 -104 0 -59 4 -90 15
-104 17 -23 19 -38 4 -28 -7 4 -10 3 -7 -2 2 -5 14 -31 27 -59 12 -27 44 -95
71 -150 26 -55 56 -122 65 -148 12 -34 27 -55 49 -67 18 -12 44 -43 62 -77 24
-45 40 -63 73 -79 24 -11 60 -41 82 -66 28 -33 50 -48 81 -56 28 -7 57 -25 83
-52 34 -35 45 -40 83 -40 31 0 60 -9 98 -30 43 -25 63 -30 111 -29 35 1 75 -5
101 -16 40 -16 59 -16 121 1 17 5 22 4 17 -4 -5 -8 1 -9 21 -2 15 4 61 11 101
14 42 4 90 15 111 26 21 10 41 16 45 13 3 -3 11 -1 18 5 7 5 31 13 53 17 72
12 100 25 133 60 29 30 82 55 119 55 7 0 31 25 53 55 27 37 57 63 90 80 45 23
54 33 81 94 21 47 44 79 70 100 37 30 43 43 63 134 4 15 11 25 16 22 6 -4 10
9 10 28 0 20 14 61 31 93 25 49 30 68 28 119 -2 38 3 76 14 105 16 40 16 50 3
92 -9 30 -10 48 -4 50 7 3 4 16 -6 35 -10 20 -16 56 -16 95 0 42 -5 71 -16 86
-9 13 -13 26 -10 29 3 3 2 11 -3 17 -5 6 -16 38 -25 71 -11 43 -24 68 -47 88
-17 16 -29 31 -26 33 2 3 -8 18 -22 33 -15 16 -33 48 -41 70 -10 30 -26 51
-62 76 -26 19 -67 59 -89 88 -38 49 -57 62 -203 135 -203 103 -218 105 -343
50z m34 -48 c26 -16 44 -30 40 -30 -13 0 -85 39 -92 50 -10 16 1 12 52 -20z
m451 -104 c10 -12 0 -8 -23 9 -56 40 -66 51 -27 29 18 -10 41 -28 50 -38z
m-1543 -278 c-4 -18 -18 -51 -31 -73 l-24 -40 0 35 c0 21 10 50 25 73 32 46
39 47 30 5z m26 -130 c-20 -28 -31 -54 -32 -77 0 -33 -2 -31 -19 24 -11 32
-17 61 -15 63 2 2 6 -6 10 -17 9 -29 19 -26 49 14 38 50 44 44 7 -7z m1806
-370 c-2 -13 -4 -5 -4 17 -1 22 1 32 4 23 2 -10 2 -28 0 -40z m-247 -815 c0
-28 -52 -83 -112 -117 -26 -15 -19 -5 35 51 37 39 67 76 67 82 0 6 2 11 5 11
3 0 5 -12 5 -27z m-960 -111 c25 -8 52 -17 60 -20 8 -2 -9 -10 -38 -17 -29 -7
-75 -26 -103 -44 -28 -17 -56 -31 -62 -31 -18 1 -124 59 -109 60 8 0 38 -7 68
-16 53 -15 55 -15 114 12 33 15 60 31 60 35 0 5 -17 18 -37 29 -21 12 -29 18
-18 14 11 -4 40 -14 65 -22z"/>
<path d="M1315 2122 c6 -5 29 -12 52 -14 55 -5 39 12 -18 19 -30 4 -41 2 -34
-5z"/>
<path d="M680 2089 c0 -4 4 -9 10 -11 5 -1 -20 -36 -55 -76 -55 -61 -65 -79
-65 -109 l0 -36 78 74 c42 41 95 89 117 106 22 17 36 35 32 39 -10 11 -117 22
-117 13z"/>
<path d="M1710 2031 c41 -28 89 -53 105 -56 l30 -7 -30 20 c-16 11 -46 36 -64
56 -29 30 -42 36 -75 36 l-41 0 75 -49z"/>
<path d="M1570 2064 c0 -6 51 -28 90 -39 24 -6 24 -6 -5 19 -26 22 -85 36 -85
20z"/>
<path d="M740 2003 c-58 -48 -74 -68 -66 -81 6 -11 129 105 124 118 -2 5 -28
-12 -58 -37z"/>
<path d="M1584 1998 c1 -38 -2 -42 -42 -64 l-43 -23 36 -7 c43 -8 101 0 121
17 32 26 7 77 -52 107 -19 10 -21 8 -20 -30z"/>
<path d="M1027 2023 c-3 -5 -4 -23 -2 -40 3 -34 -11 -45 -21 -18 -7 18 -24 10
-24 -11 0 -26 30 -28 56 -4 28 28 31 45 7 59 -15 9 -15 10 -2 11 17 0 39 -19
39 -33 0 -6 -34 -43 -75 -83 -51 -50 -75 -80 -75 -96 1 -22 1 -22 12 -3 6 11
42 52 79 91 38 40 69 79 69 87 0 30 -50 62 -63 40z"/>
<path d="M1700 1960 c18 -35 -21 -70 -77 -70 -24 0 -43 -4 -43 -9 0 -12 97
-51 127 -51 40 0 63 18 63 49 0 31 -30 75 -62 92 -18 10 -19 9 -8 -11z"/>
<path d="M1800 1942 c0 -10 63 -72 74 -72 12 0 -34 59 -55 70 -10 6 -19 7 -19
2z"/>
<path d="M504 1896 c-40 -39 -46 -49 -40 -73 4 -15 14 -38 22 -51 13 -20 18
-21 31 -10 14 11 13 8 -1 -14 -10 -15 -16 -35 -14 -45 3 -13 9 -8 25 22 25 49
38 89 26 82 -10 -6 -1 102 10 121 18 27 -15 9 -59 -32z"/>
<path d="M812 1877 c-26 -24 -56 -49 -67 -56 -18 -11 -18 -11 5 -5 14 3 49 22
78 42 40 27 55 33 61 23 6 -9 10 -7 14 8 12 47 -33 41 -91 -12z"/>
<path d="M1799 1903 c29 -55 0 -98 -61 -90 -52 7 -48 -6 11 -32 64 -27 87 -27
106 3 14 21 14 28 2 58 -8 18 -27 44 -42 58 -26 23 -27 23 -16 3z"/>
<path d="M1047 1870 c-38 -24 -67 -61 -67 -85 0 -1 15 11 33 29 17 17 48 44
67 59 47 36 25 34 -33 -3z"/>
<path d="M1490 1875 c-15 -18 -15 -18 35 0 40 14 40 14 9 15 -17 0 -37 -7 -44
-15z"/>
<path d="M1890 1787 c0 -43 -19 -57 -77 -57 l-38 -1 40 -25 c29 -17 51 -24 80
-22 36 3 40 6 43 32 4 32 -13 79 -34 97 -12 9 -14 5 -14 -24z"/>
<path d="M1951 1778 c13 -24 16 -99 5 -117 -9 -14 -71 -14 -99 0 -18 10 -17 6
7 -20 39 -41 110 -69 131 -51 21 17 19 58 -5 105 -23 45 -19 56 10 30 22 -20
25 -14 9 18 -12 23 -48 56 -62 57 -4 0 -2 -10 4 -22z"/>
<path d="M2010 1774 c0 -14 75 -107 105 -129 45 -35 52 -31 17 9 -16 19 -35
50 -42 70 -6 20 -20 41 -30 46 -21 11 -50 13 -50 4z"/>
<path d="M2070 1609 c0 -13 16 -47 36 -74 l36 -50 -7 35 c-11 53 -21 73 -44
94 -21 19 -21 19 -21 -5z"/>
<path d="M536 1568 c-44 -70 -55 -91 -71 -141 -9 -27 -10 -36 -2 -23 7 10 20
28 29 40 17 21 17 21 18 -11 0 -55 17 -45 23 15 4 31 15 83 25 115 11 31 18
57 16 57 -3 0 -19 -24 -38 -52z"/>
<path d="M2031 1593 c-1 -50 -38 -63 -106 -36 -34 12 12 -41 55 -66 30 -17 44
-20 59 -12 29 16 34 56 12 104 l-19 42 -1 -32z"/>
<path d="M464 1504 c-15 -25 -40 -83 -56 -129 -24 -71 -27 -87 -17 -111 l12
-29 8 30 c4 17 12 59 19 94 6 36 24 93 40 128 16 35 27 63 25 63 -2 0 -16 -21
-31 -46z"/>
<path d="M2080 1499 c0 -47 -47 -72 -91 -49 -33 18 -22 -9 20 -51 45 -45 64
-48 87 -14 12 18 14 35 9 67 -9 55 -24 84 -25 47z"/>
<path d="M547 1471 c-9 -45 -9 -101 1 -101 10 0 45 71 38 78 -3 3 -9 -4 -13
-14 -6 -14 -9 -8 -13 26 l-5 45 -8 -34z"/>
<path d="M479 1403 c-27 -67 -39 -121 -45 -197 -4 -59 -3 -77 5 -66 6 8 11 27
11 42 0 15 5 30 10 33 6 3 10 2 10 -2 0 -5 6 -17 13 -27 12 -16 14 1 15 113 0
72 -1 131 -4 131 -2 0 -9 -12 -15 -27z"/>
<path d="M2160 1402 c0 -29 23 -102 33 -102 1 0 0 25 -3 55 -7 64 -30 100 -30
47z"/>
<path d="M2132 1392 c-1 -13 -13 -34 -26 -47 -26 -26 -46 -25 -79 3 -25 22
-31 9 -12 -30 25 -49 45 -68 71 -68 37 0 56 38 51 107 -2 32 -4 48 -5 35z"/>
<path d="M531 1298 c1 -13 5 -34 9 -48 7 -21 8 -19 9 17 1 23 -3 45 -9 48 -6
3 -10 -4 -9 -17z"/>
<path d="M516 1235 c3 -33 10 -76 15 -95 7 -28 8 -20 5 35 -3 39 -9 81 -15 95
-9 20 -10 13 -5 -35z"/>
<path d="M2138 1240 c-23 -40 -68 -41 -97 -3 -28 35 -31 28 -14 -29 16 -57 51
-85 82 -68 28 15 53 65 49 101 l-3 29 -17 -30z"/>
<path d="M2186 1204 c-9 -24 -7 -82 3 -88 10 -7 21 27 21 66 0 31 -15 45 -24
22z"/>
<path d="M464 1080 c2 -63 10 -110 22 -140 l19 -45 5 45 5 45 33 -34 c17 -18
32 -29 32 -25 0 5 -27 63 -60 129 l-60 120 4 -95z"/>
<path d="M2020 1118 c0 -69 28 -106 70 -93 19 6 43 51 54 100 l7 30 -20 -31
c-11 -18 -24 -35 -30 -39 -20 -12 -53 7 -66 38 l-14 32 -1 -37z"/>
<path d="M400 1108 c1 -18 7 -44 14 -57 l13 -24 7 27 c4 16 1 38 -9 56 -20 38
-25 38 -25 -2z"/>
<path d="M2002 979 c5 -85 45 -93 96 -19 27 40 29 59 4 37 -27 -25 -60 -21
-74 8 -18 40 -29 29 -26 -26z"/>
<path d="M2158 1013 c-8 -10 -20 -38 -26 -63 l-11 -45 29 35 c17 20 30 47 30
63 0 32 -2 33 -22 10z"/>
<path d="M1961 891 c-12 -55 -6 -101 12 -101 14 0 97 87 97 102 0 6 -9 3 -20
-7 -25 -23 -47 -13 -64 27 l-14 31 -11 -52z"/>
<path d="M545 884 c7 -42 43 -117 72 -153 l20 -25 -5 32 c-5 35 5 40 40 21
l22 -12 -21 32 c-32 51 -92 120 -115 132 -20 11 -20 9 -13 -27z"/>
<path d="M471 868 c5 -18 20 -44 34 -57 l25 -26 0 28 c0 16 -11 39 -29 57 -36
38 -42 38 -30 -2z"/>
<path d="M2065 827 c-8 -13 -18 -39 -21 -58 l-7 -34 32 29 c20 20 31 39 31 58
0 34 -14 36 -35 5z"/>
<path d="M1906 805 c-40 -61 -43 -115 -6 -115 10 0 40 20 67 45 47 43 47 44
15 32 -30 -11 -35 -10 -48 8 -8 11 -13 28 -10 38 6 23 1 21 -18 -8z"/>
<path d="M660 717 c0 -24 48 -104 75 -127 13 -11 15 -7 15 20 0 30 2 32 30 28
18 -3 29 0 27 6 -6 17 -70 64 -109 81 -38 15 -38 15 -38 -8z"/>
<path d="M1824 708 c-43 -47 -59 -108 -29 -108 22 0 81 26 116 51 35 25 33 35
-4 18 -32 -15 -54 0 -59 38 l-3 25 -21 -24z"/>
<path d="M575 698 c7 -23 52 -68 68 -68 16 0 -5 45 -31 67 -34 29 -45 29 -37
1z"/>
<path d="M1952 654 c-20 -14 -59 -74 -48 -74 22 0 57 28 66 53 13 37 10 41
-18 21z"/>
<path d="M1733 638 c-36 -40 -53 -72 -53 -97 0 -22 3 -23 40 -18 22 3 59 19
82 36 l43 32 -45 -3 -45 -3 2 38 c1 20 1 37 -1 37 -1 0 -12 -10 -23 -22z"/>
<path d="M788 612 c-25 -5 -22 -25 9 -62 23 -28 93 -80 107 -80 3 0 -3 14 -12
30 -15 27 -15 32 -2 40 8 6 29 8 45 5 29 -4 29 -4 10 11 -40 32 -127 63 -157
56z"/>
<path d="M712 568 c5 -15 69 -60 75 -54 8 8 -21 45 -44 55 -31 14 -36 14 -31
-1z"/>
<path d="M1597 551 c-57 -37 -75 -67 -54 -88 27 -27 139 -12 167 23 11 12 6
14 -29 14 -47 0 -59 16 -41 50 17 33 8 33 -43 1z"/>
<path d="M1797 521 c-34 -7 -80 -71 -52 -71 9 0 25 4 35 10 20 11 67 71 53 69
-4 -1 -21 -4 -36 -8z"/>
<path d="M916 511 c-10 -16 27 -50 89 -80 60 -30 87 -33 47 -5 -33 23 -28 52
11 62 l32 9 -28 12 c-34 13 -143 15 -151 2z"/>
<path d="M1485 507 c-16 -5 -38 -16 -49 -23 -10 -7 -24 -10 -32 -7 -20 7 -118
-24 -145 -47 -23 -19 -23 -20 -5 -34 24 -19 113 -30 168 -20 l43 7 -38 9 c-21
4 -47 13 -59 19 -20 11 -20 11 3 35 29 31 41 30 33 -2 -11 -45 35 -56 135 -32
50 11 53 27 6 28 -38 1 -50 16 -37 46 7 14 11 28 10 29 -2 1 -16 -2 -33 -8z"/>
<path d="M1103 469 c-47 -14 -48 -25 -6 -54 33 -21 132 -50 141 -41 1 2 -9 11
-23 20 -33 21 -32 32 6 55 30 18 30 18 7 25 -32 8 -87 6 -125 -5z"/>
<path d="M884 441 c19 -21 56 -34 56 -21 0 12 -41 40 -59 40 -11 0 -11 -4 3
-19z"/>
<path d="M1592 400 l-32 -30 38 0 c29 0 45 7 67 30 l29 30 -35 0 c-23 0 -44
-10 -67 -30z"/>
<path d="M1010 395 c0 -9 71 -37 78 -30 3 3 1 9 -4 14 -11 11 -74 25 -74 16z"/>
<path d="M1213 352 c-21 -14 37 -40 75 -35 l34 6 -29 18 c-30 20 -60 24 -80
11z"/>
<path d="M1401 346 l-24 -13 29 -10 c23 -8 37 -6 67 9 20 10 37 21 37 23 0 11
-87 3 -109 -9z"/>
<path d="M1293 289 c-43 -12 -42 -22 1 -14 18 4 50 2 70 -3 30 -9 40 -7 58 8
l23 19 -60 0 c-33 -1 -75 -5 -92 -10z"/>
</g>
</svg>
